<?xml version="1.0" encoding="UTF-8"?><svg xmlns="http://www.w3.org/2000/svg" xmlns:xlink="http://www.w3.org/1999/xlink" height="126.6" preserveAspectRatio="xMidYMid meet" version="1.0" viewBox="0.0 -0.6 97.1 126.6" width="97.1" zoomAndPan="magnify"><g id="change1_1"><path d="M29.823,20.859c0.122,0.051,0.252,0.076,0.382,0.076s0.26-0.025,0.382-0.076c7.512-3.106,12.265-8.333,12.111-13.313 c-0.114-3.685-1.686-5.528-2.985-6.428c-2.528-1.745-5.461-0.969-6.021-0.797c-1.675,0.513-2.822,1.616-3.524,2.526 c-0.747-0.904-1.948-2.013-3.624-2.525c-0.562-0.175-3.495-0.951-6.024,0.797c-1.3,0.898-2.871,2.742-2.985,6.426 C17.381,12.481,22.205,17.707,29.823,20.859z M21.655,2.765c0.868-0.6,1.835-0.764,2.635-0.764c0.865,0,1.534,0.192,1.665,0.232 c2.189,0.67,3.349,2.869,3.358,2.888c0.174,0.343,0.547,0.549,0.916,0.545c0.385-0.01,0.731-0.241,0.89-0.592 c0.01-0.021,1.002-2.181,3.16-2.842c0.25-0.078,2.487-0.716,4.297,0.531c0.92,0.637,2.035,1.993,2.122,4.844 c0.126,4.063-3.979,8.446-10.493,11.242c-6.621-2.838-10.797-7.223-10.672-11.243C19.62,4.757,20.735,3.401,21.655,2.765z" fill="inherit"/><path d="M9.387,57.333c-2.257,0-4.093,1.831-4.093,4.082c0,2.25,1.836,4.081,4.093,4.081s4.094-1.831,4.094-4.081 C13.48,59.164,11.644,57.333,9.387,57.333z M9.387,63.496c-1.154,0-2.093-0.934-2.093-2.081c0-1.148,0.938-2.082,2.093-2.082 s2.094,0.934,2.094,2.082C11.48,62.563,10.541,63.496,9.387,63.496z" fill="inherit"/><path d="M16.562,67.134c-1.562,0-2.834,1.269-2.834,2.827s1.271,2.827,2.834,2.827c1.563,0,2.834-1.269,2.834-2.827 S18.125,67.134,16.562,67.134z M16.562,70.788c-0.46,0-0.834-0.371-0.834-0.827s0.374-0.827,0.834-0.827 c0.46,0,0.834,0.371,0.834,0.827S17.022,70.788,16.562,70.788z" fill="inherit"/><path d="M31.339,46.8c0-2.286-1.865-4.146-4.157-4.146s-4.157,1.859-4.157,4.146s1.865,4.146,4.157,4.146 S31.339,49.086,31.339,46.8z M27.182,48.946c-1.189,0-2.157-0.963-2.157-2.146s0.968-2.146,2.157-2.146s2.157,0.963,2.157,2.146 S28.371,48.946,27.182,48.946z" fill="inherit"/><path d="M30.116,54.092c-1.325,0-2.403,1.076-2.403,2.398s1.078,2.397,2.403,2.397s2.403-1.075,2.403-2.397 S31.441,54.092,30.116,54.092z M30.116,56.888c-0.223,0-0.403-0.179-0.403-0.397c0-0.22,0.181-0.398,0.403-0.398 s0.403,0.179,0.403,0.398C30.52,56.709,30.339,56.888,30.116,56.888z" fill="inherit"/><path d="M96.767,101.875c-1.277-2.92-10.529-2.313-15.19-1.808L70.567,74.904c2.264-2.369,10.825-12.628,4.683-26.669 c-3.155-7.212-7.215-14.552-10.655-20.34c-0.005-0.013-0.003-0.027-0.009-0.039c-0.026-0.06-0.072-0.102-0.107-0.154 c-3.861-6.484-6.913-10.974-6.971-11.058c-0.271-0.396-0.784-0.545-1.225-0.354L32.127,26.778c-0.184-0.203-0.44-0.337-0.73-0.337 H4.576c-0.48,0-0.894,0.342-0.982,0.814C3.558,27.445,0,46.456,0,63.279c0,15.319,11.968,21.315,14.988,22.583v27.448 c-4.478,1.394-13.2,4.52-13.2,7.707c0,3.353,5.299,4.982,16.199,4.982c10.899,0,16.198-1.63,16.198-4.982 c0-3.188-8.723-6.313-13.2-7.707V85.862c3.021-1.268,14.988-7.264,14.988-22.583c0-7.865-0.778-16.209-1.61-22.884 c0.001-0.016,0.009-0.029,0.009-0.045c0-0.07-0.026-0.13-0.039-0.196c-0.002-0.012-0.003-0.024-0.005-0.036 c1.932,6.588,4.654,14.919,7.945,22.441c6.145,14.05,19.571,14.755,22.796,14.734l11.009,25.163 c-3.547,3.062-10.289,9.399-9.01,12.321c0.558,1.276,1.836,1.916,3.856,1.916c2.841,0,7.149-1.265,12.988-3.8 c7.539-3.272,11.863-6.207,12.852-8.722C97.076,103.379,97.077,102.585,96.767,101.875z M56.316,18.455 c0.928,1.395,3.171,4.816,5.892,9.343L36.121,39.126c-1.475-5.064-2.465-9.029-2.86-10.659L56.316,18.455z M5.411,28.441h25.151 c0.292,1.65,0.975,5.678,1.654,10.909H3.758C4.436,34.12,5.119,30.091,5.411,28.441z M19.669,84.232 c-0.407,0.137-0.684,0.519-0.684,0.948v28.869c0,0.441,0.289,0.83,0.711,0.957c6.536,1.972,12.489,4.837,12.489,6.011 c0,1.107-2.99,2.982-14.198,2.982c-11.209,0-14.199-1.875-14.199-2.982c0-1.173,5.953-4.038,12.489-6.011 c0.422-0.127,0.711-0.516,0.711-0.957V85.18c0-0.431-0.276-0.813-0.685-0.949C16.16,84.184,2,79.295,2,63.279 c0-7.501,0.717-15.445,1.507-21.929h28.96c0.79,6.483,1.506,14.427,1.506,21.929C33.974,79.253,20.253,84.036,19.669,84.232z M94.903,103.441c-0.754,1.917-5.05,4.694-11.787,7.619c-10.278,4.465-13.771,3.934-14.216,2.916 c-0.471-1.075,3.837-6.069,9.037-10.479c0.337-0.285,0.446-0.759,0.27-1.163L66.629,75.87c-0.16-0.366-0.522-0.6-0.917-0.6 c-0.028,0-0.058,0.001-0.087,0.004c-0.609,0.056-15.112,1.129-21.52-13.516c-3.008-6.876-5.537-14.443-7.413-20.701L63.24,29.53 c3.325,5.63,7.17,12.628,10.178,19.505c6.405,14.644-4.253,24.487-4.71,24.898c-0.319,0.289-0.42,0.75-0.247,1.145l11.578,26.466 c0.176,0.403,0.59,0.651,1.032,0.593c6.785-0.794,13.392-0.536,13.863,0.54C94.995,102.816,95.058,103.046,94.903,103.441z" fill="inherit"/><path d="M48.496,53.37c-1.004,0.436-1.777,1.235-2.177,2.252c-0.398,1.015-0.378,2.123,0.06,3.122 c0.671,1.533,2.179,2.45,3.758,2.45c0.544,0,1.098-0.109,1.628-0.34c1.004-0.436,1.777-1.235,2.177-2.252 c0.398-1.015,0.378-2.123-0.06-3.122C52.981,53.417,50.564,52.471,48.496,53.37z M52.08,57.871 c-0.204,0.519-0.599,0.927-1.112,1.149c-1.057,0.46-2.296-0.023-2.757-1.077c-0.223-0.509-0.233-1.073-0.03-1.59 c0.204-0.519,0.599-0.927,1.112-1.149c0.271-0.118,0.556-0.174,0.835-0.174c0.808,0,1.579,0.469,1.922,1.251 C52.272,56.789,52.283,57.354,52.08,57.871z" fill="inherit"/><path d="M59.005,59.498c-0.695,0.302-1.231,0.856-1.508,1.562c-0.275,0.702-0.261,1.47,0.042,2.161 c0.464,1.062,1.508,1.696,2.601,1.696c0.377,0,0.76-0.075,1.127-0.235c0.695-0.302,1.231-0.856,1.508-1.562 c0.275-0.702,0.261-1.47-0.042-2.16C62.108,59.532,60.437,58.872,59.005,59.498z M60.913,62.39 c-0.081,0.206-0.238,0.369-0.443,0.458c-0.419,0.181-0.914-0.009-1.099-0.429v-0.001c-0.088-0.201-0.093-0.424-0.013-0.628 c0.081-0.206,0.238-0.369,0.443-0.458c0.108-0.047,0.222-0.069,0.333-0.069c0.322,0,0.629,0.187,0.766,0.499 C60.988,61.963,60.993,62.186,60.913,62.39z" fill="inherit"/><path d="M58.922,32.83c-1.02,0.443-1.805,1.256-2.211,2.289c-0.404,1.029-0.383,2.155,0.061,3.169v0.001 c0.682,1.557,2.213,2.486,3.817,2.486c0.553,0,1.114-0.11,1.652-0.345c1.021-0.441,1.805-1.254,2.211-2.286 c0.405-1.03,0.384-2.156-0.06-3.172C63.477,32.88,61.021,31.914,58.922,32.83z M62.591,37.412c-0.21,0.534-0.616,0.955-1.146,1.185 c-1.092,0.471-2.366-0.023-2.842-1.11c-0.229-0.523-0.239-1.104-0.03-1.637c0.21-0.534,0.617-0.955,1.146-1.186 c1.089-0.473,2.365,0.024,2.842,1.11C62.789,36.299,62.801,36.881,62.591,37.412z" fill="inherit"/><path d="M69.395,45.223c0.235-0.597,0.223-1.249-0.034-1.837c-0.531-1.209-1.946-1.769-3.161-1.238 c-0.59,0.256-1.044,0.726-1.279,1.323c-0.234,0.596-0.222,1.247,0.035,1.834c0,0.001,0,0.001,0,0.001 c0.395,0.899,1.28,1.438,2.207,1.438c0.319,0,0.644-0.063,0.954-0.198C68.706,46.289,69.16,45.82,69.395,45.223z M67.534,44.491 c-0.023,0.057-0.081,0.162-0.214,0.22c-0.203,0.087-0.445-0.004-0.533-0.207c-0.057-0.13-0.027-0.244-0.006-0.301 c0.022-0.058,0.081-0.162,0.215-0.221c0.206-0.087,0.443,0.004,0.532,0.206C67.585,44.319,67.556,44.433,67.534,44.491z" fill="inherit"/></g></svg>