<?xml version="1.0" encoding="UTF-8" standalone="no"?>
<svg
   clip-rule="evenodd"
   fill-rule="evenodd"
   height="345.29999"
   preserveAspectRatio="xMidYMid"
   stroke-linejoin="round"
   stroke-miterlimit="2"
   version="1.0"
   viewBox="161.4 85.6 144.8 345.3"
   width="144.8"
   zoomAndPan="magnify"
   id="svg10"
   xmlns="http://www.w3.org/2000/svg"
   xmlns:svg="http://www.w3.org/2000/svg">
  <defs
     id="defs10" />
  <g
     id="g11"
     transform="matrix(1.1049633,0,0,1.1049633,-37.272343,-14.682817)">
    <g
       id="g10"
       transform="matrix(0.56822332,0.18613969,-0.1875785,0.56386477,159.70771,5.3073811)">
      <g
         id="g9">
        <path
           d="m 5052.33,0 h 512 v 512 h -512 z"
           fill="none"
           transform="translate(-5051.47,0.21)"
           id="path1" />
        <g
           id="change1_4">
          <path
             d="m 1668,3951.26 c -0.45,-0.48 -0.73,-1.08 -1.11,-1.7 -0.77,-1.28 -1.5,-2.79 -2.11,-4.45 -1.38,-3.78 -2.35,-8.1 -3.21,-10.81 -2.44,-7.53 -4.66,-15.12 -6.69,-22.75 -2.04,-7.63 -3.9,-15.31 -5.53,-23.06 -6.89,-32.14 -11.29,-65.09 -11.77,-97.96 -0.47,-32.93 2.99,-65.78 12.13,-97.71 0.14,-0.46 -0.12,-0.94 -0.59,-1.08 -0.46,-0.13 -0.94,0.13 -1.07,0.59 -9.63,32.03 -13.63,65.07 -13.46,98.23 0.16,33.09 4.48,66.29 11.21,98.68 1.66,7.81 3.52,15.56 5.63,23.24 2.11,7.68 4.47,15.29 7.02,22.85 1.11,3.18 2.31,8.63 4.43,12.69 0.61,1.16 1.24,2.25 2.05,3.07 0.66,0.66 1.36,1.13 2.11,1.49 0.37,0.27 0.88,0.19 1.14,-0.18 0.27,-0.36 0.19,-0.88 -0.18,-1.14 z"
             fill="#242424"
             transform="translate(-1450.24,-3522)"
             id="path2" />
        </g>
        <g
           id="change1_2">
          <path
             d="m 1647.57,3691.55 c -0.06,0.07 -0.11,0.13 -0.04,0.1 0.05,-0.02 0.06,-0.05 0.04,-0.1 0.06,-0.05 0.12,-0.12 0.12,-0.14 0.01,-0.09 0.06,-0.15 0.12,-0.19 l -0.03,0.05 c -0.08,0.1 -0.13,0.22 -0.16,0.34 -0.25,0.5 -0.49,1.01 -0.73,1.52 -0.25,0.45 -0.08,1.02 0.37,1.27 0.46,0.24 1.02,0.08 1.27,-0.37 1.07,-1.74 2.22,-3.4 3.29,-5.11 1.65,-2.62 3.18,-5.29 4.57,-8.03 1.56,-3.07 2.89,-6.27 3.75,-9.74 0.53,-2.1 0.85,-4.23 1.06,-6.38 0.49,-4.86 0.38,-9.8 0.78,-14.67 0.24,-2.99 0.64,-6.02 1.17,-9.04 0.53,-3.02 1.19,-6.01 1.95,-8.92 0.63,-2.45 1.38,-4.85 2.18,-7.23 1.2,-3.59 2.54,-7.13 4,-10.64 0.19,-0.45 1.35,-2.86 1.67,-4.36 0.19,-0.88 0.04,-1.56 -0.26,-1.88 -0.27,-0.29 -0.74,-0.44 -1.34,-0.23 -0.63,0.23 -1.59,1.01 -1.75,1.13 -0.98,0.75 -1.92,1.58 -2.84,2.44 -1.35,1.26 -2.65,2.6 -3.9,3.91 -4.06,4.22 -7.82,8.93 -10.94,14.02 -3.14,5.12 -5.61,10.63 -7.06,16.39 -1.32,5.26 -1.88,10.61 -1.93,15.99 -0.05,5.34 0.4,10.7 1.08,15.99 0.21,1.57 0.46,3.14 0.78,4.69 0.47,2.32 1.05,4.61 1.67,6.89 0.03,0.11 0.2,0.9 0.53,1.58 0.13,0.28 0.54,0.57 0.58,0.72 z m 22.58,-80.86 c -0.75,0.62 -1.47,1.27 -2.18,1.95 -1.32,1.26 -2.58,2.59 -3.81,3.89 -3.91,4.16 -7.54,8.8 -10.52,13.8 -2.97,4.98 -5.3,10.31 -6.63,15.89 -1.21,5.09 -1.68,10.27 -1.67,15.47 0.01,5.22 0.52,10.46 1.25,15.63 0.25,1.91 0.6,3.79 0.98,5.67 0.39,1.88 0.82,3.76 1.29,5.63 0.01,0.04 0.05,0.14 0.11,0.29 0.11,-0.2 0.22,-0.4 0.33,-0.6 1.99,-3.62 4.2,-7.07 5.91,-10.82 1.01,-2.21 1.88,-4.51 2.5,-6.95 0.51,-1.99 0.82,-3.99 1.03,-6.02 0.5,-4.85 0.42,-9.77 0.84,-14.62 0.26,-3.06 0.69,-6.17 1.25,-9.25 0.56,-3.08 1.26,-6.14 2.05,-9.1 0.84,-3.12 1.81,-6.17 2.93,-9.18 1.11,-3 2.37,-5.94 3.69,-8.87 0.12,-0.26 0.3,-1.66 0.65,-2.81 z"
             fill="#242424"
             transform="translate(-1450.24,-3522)"
             id="path3" />
        </g>
        <g
           id="change1_6">
          <path
             d="m 1636.73,3761.13 c -0.16,-0.35 -0.55,-0.54 -0.94,-0.45 -0.43,0.12 -0.7,0.56 -0.59,1 l 0.37,0.55 c 0.36,0.27 0.87,0.2 1.14,-0.16 0.21,-0.29 0.21,-0.66 0.02,-0.94 z"
             fill="#242424"
             transform="translate(-1450.24,-3522)"
             id="path4" />
        </g>
        <g
           id="change1_5">
          <path
             d="m 1636.66,3762.06 c 0.01,0.05 0.02,0.1 0.04,0.16 0.16,0.42 0.64,0.63 1.06,0.46 0.26,0.03 0.36,-0.18 0.52,-0.24 0.59,-0.23 0.45,-0.78 0.18,-1.63 -0.17,-0.54 -1.12,-1.32 -1.4,-1.86 l -1.31,-1.78 c -0.88,-2.95 -1.37,-5.98 -1.81,-9.03 -0.69,-4.69 -1.19,-9.42 -2.09,-14.04 -1.67,-8.06 -3.84,-15.87 -5.53,-23.86 -0.72,-3.36 -1.35,-6.75 -1.81,-10.21 -0.8,-5.6 -1.41,-11.23 -2.17,-16.84 -0.32,-2.42 -0.68,-4.84 -1.09,-7.24 -0.09,-0.47 -0.78,-4.53 -1.83,-6.23 -0.78,-1.25 -1.77,-1.6 -2.74,-0.98 -0.58,0.37 -1.05,0.98 -1.37,1.75 -0.54,1.26 -0.73,2.95 -0.9,3.9 -0.47,2.12 -0.85,4.26 -1.16,6.41 -0.31,2.14 -0.56,4.3 -0.76,6.45 -0.86,9.14 -0.42,18.11 1.16,26.88 1.58,8.78 4.33,17.36 8.09,25.7 1.27,2.82 2.65,5.61 4.16,8.33 1.51,2.73 3.16,5.39 4.97,7.93 l 3.76,4.75 c 0.19,0.23 0.47,0.54 0.84,0.78 0.34,0.22 1.15,0.22 1.01,0.51 -0.03,0.07 0.11,0 0.18,-0.07 z m 0.07,-0.51 c -0.12,0.15 -0.21,0.28 -0.08,0.42 -0.01,-0.15 0.02,-0.29 0.08,-0.42 z m 0.36,-0.36 c -0.06,0.01 -0.13,-0.02 -0.15,0.03 -0.01,0.04 -0.03,0.08 -0.05,0.11 0.06,-0.05 0.13,-0.1 0.2,-0.14 z m -19.71,-90.17 c -0.15,0.22 -0.27,0.48 -0.37,0.75 -0.41,1.04 -0.62,2.27 -0.8,3.01 -0.44,2.07 -0.78,4.17 -1.06,6.28 -0.28,2.12 -0.49,4.24 -0.65,6.36 -0.69,8.95 -0.12,17.71 1.58,26.25 1.7,8.54 4.53,16.85 8.35,24.92 1.29,2.72 2.68,5.41 4.2,8.02 1.09,1.89 2.25,3.73 3.48,5.52 -0.1,-0.4 -0.2,-0.8 -0.29,-1.21 -1.22,-5.34 -1.71,-10.88 -2.9,-16.2 -1.7,-8.05 -3.93,-15.85 -5.64,-23.83 -0.74,-3.44 -1.38,-6.91 -1.85,-10.44 l -2.85,-24.08 c -0.04,-0.33 -0.25,-2.76 -0.77,-4.52 -0.09,-0.32 -0.3,-0.6 -0.43,-0.83 z"
             fill="#242424"
             transform="translate(-1450.24,-3522)"
             id="path5" />
        </g>
        <g
           id="change1_7">
          <path
             d="m 1653.36,3914.12 -0.01,0.02 -0.03,0.05 c -0.07,0.08 -0.14,0.17 -0.06,0.17 l 0.02,-0.08 c 0.01,-0.02 0.02,-0.05 0.03,-0.07 l 0.01,-0.02 0.04,-0.05 c 0.03,0.12 0.01,0.2 -0.09,0.22 h -0.01 c -0.01,0.02 -0.01,0.05 -0.02,0.08 -0.06,0.45 0.25,0.86 0.7,0.93 0.43,0.16 0.87,-0.12 1.07,-0.96 0.14,-0.55 -0.07,-2.19 -0.08,-2.24 0,0 -0.75,-4.85 -0.75,-4.85 -0.33,-2.46 -0.61,-4.94 -0.85,-7.42 -0.23,-2.48 -0.42,-4.96 -0.56,-7.44 -0.43,-7.7 -0.4,-15.54 0.17,-23.33 0.57,-7.78 1.68,-15.51 3.5,-23 1.78,-7.47 4.42,-14.64 7.59,-21.58 4.8,-10.48 10.81,-20.44 17.05,-30.09 5.31,-8.25 10.82,-16.35 16.39,-24.42 8.36,-12.12 16.87,-24.13 25.42,-36.11 0.13,-0.19 0.09,-0.45 -0.09,-0.59 -0.18,-0.13 -0.45,-0.09 -0.58,0.09 -7.42,9.78 -14.88,19.53 -22.13,29.44 -7.26,9.91 -14.3,19.98 -21.1,30.22 -6.43,9.69 -12.65,19.68 -17.61,30.23 -3.32,7.09 -6.07,14.43 -7.95,22.08 -1.85,7.66 -3.01,15.56 -3.56,23.51 -0.54,7.93 -0.48,15.9 0.03,23.72 0.17,2.52 0.39,5.04 0.65,7.55 0.27,2.52 0.58,5.03 0.95,7.52 0.17,1.18 0.32,2.38 0.59,3.55 0.12,0.52 0.28,1.02 0.44,1.52 0.01,0.03 0.72,0.92 0.83,1.35 z m 0.41,-0.33 c -0.13,0.02 -0.24,0.08 -0.3,0.2 0.08,-0.09 0.19,-0.16 0.3,-0.2 z"
             fill="#242424"
             transform="translate(-1450.24,-3522)"
             id="path6" />
        </g>
        <g
           id="change1_3">
          <path
             d="m 1679.31,3790.78 c 0.01,-0.38 0.02,-0.76 0.02,-1.14 -0.01,-1.63 -0.05,-3.23 0.04,-4.83 0.33,-5.47 1.44,-10.83 1.72,-16.39 0.08,-1.89 0.09,-3.78 0.07,-5.67 -0.09,-7.43 -0.82,-14.9 -0.6,-22.35 l 0.25,-12.58 c -0.01,-0.66 0.15,-3.07 -0.35,-4.35 -0.29,-0.73 -0.76,-1.2 -1.35,-1.35 -0.59,-0.15 -1.22,0.03 -1.76,0.58 -0.85,0.87 -1.59,2.95 -1.79,3.44 -0.91,2.21 -1.62,4.53 -2.23,6.87 -0.61,2.33 -1.12,4.69 -1.55,7 -1.19,6.31 -1.66,12.75 -1.5,19.17 0.17,6.43 0.98,12.84 2.38,19.09 0.41,1.81 0.88,3.62 1.41,5.41 0.53,1.8 1.11,3.57 1.74,5.32 l 2.19,4.43 c 0.03,0.45 0.42,0.79 0.87,0.77 0.45,-0.03 0.79,-0.42 0.77,-0.87 0.08,-0.79 -0.05,-1.67 -0.33,-2.55 z m -0.8,-65.47 c -0.42,0.67 -1.05,1.34 -1.15,1.58 -0.72,1.7 -1.35,3.45 -1.86,5.25 -0.78,2.71 -1.34,5.49 -1.82,8.22 -1.08,6.18 -1.47,12.47 -1.23,18.75 0.24,6.28 1.12,12.53 2.56,18.62 0.41,1.76 0.89,3.51 1.42,5.25 0.29,0.95 0.59,1.9 0.91,2.85 l 0.04,-1.12 c 0.22,-5.46 1.25,-10.83 1.44,-16.39 0.07,-1.84 0.08,-3.69 0.06,-5.54 -0.11,-7.46 -0.82,-14.97 -0.61,-22.45 l 0.35,-12.51 c 0,-0.34 -0.06,-1.55 -0.11,-2.51 z"
             fill="#242424"
             transform="translate(-1450.24,-3522)"
             id="path7" />
        </g>
        <g
           id="change1_8">
          <path
             d="m 1686.14,3782.35 c -0.04,0.1 -0.06,0.21 -0.05,0.32 -0.09,0.13 -0.14,0.28 -0.14,0.45 -0.15,0.28 0.12,0.42 0.14,0.55 0.06,0.54 0.49,0.37 1.22,0.23 0.13,-0.03 0.54,-0.43 0.77,-0.52 0,0 1.28,-0.95 1.28,-0.95 l 0.36,-0.26 c 5.15,-1.87 10.6,-3.21 15.81,-4.96 2.7,-0.91 5.34,-1.93 7.85,-3.19 4.73,-2.37 9.12,-5.47 13.25,-8.96 6.11,-5.17 11.61,-11.21 16.72,-17.02 2.34,-2.68 4.79,-5.38 6.98,-8.26 1.48,-1.94 2.82,-3.97 4.04,-6.05 0.3,-0.52 1.38,-2.27 1.8,-3.67 0.31,-1.04 0.22,-1.94 -0.27,-2.42 -0.42,-0.44 -1.14,-0.55 -1.98,-0.27 -1,0.33 -2.23,1.22 -2.61,1.46 -1.32,0.86 -2.59,1.79 -3.82,2.77 -1.83,1.45 -3.59,3 -5.34,4.52 -7.8,6.76 -15.3,13.71 -23.07,20.36 -5.16,4.41 -10.43,8.69 -15.99,12.7 l -11.16,8.29 -3.99,3.03 -1.34,1.07 c -0.12,0.13 -0.36,0.31 -0.44,0.58 -0.02,0.06 -0.03,0.14 -0.02,0.2 z m 68.62,-53.48 c -0.41,0.2 -2.2,1.12 -2.55,1.35 -1.27,0.83 -2.48,1.75 -3.66,2.71 -1.79,1.45 -3.51,2.99 -5.23,4.52 -7.71,6.87 -15.12,13.93 -22.8,20.69 -5.14,4.52 -10.41,8.92 -15.97,13.04 l -11.06,8.22 c 3.83,-1.25 7.74,-2.36 11.52,-3.69 2.61,-0.92 5.17,-1.95 7.59,-3.2 4.58,-2.37 8.81,-5.45 12.79,-8.89 5.97,-5.18 11.34,-11.21 16.32,-17 1.91,-2.23 3.84,-4.52 5.74,-6.83 1.87,-2.3 3.71,-4.61 5.29,-7.07 0.23,-0.34 0.9,-1.29 1.41,-2.28 0.23,-0.46 0.44,-0.93 0.53,-1.33 0.02,-0.09 0.06,-0.18 0.08,-0.24 z"
             fill="#242424"
             transform="translate(-1450.24,-3522)"
             id="path8" />
        </g>
        <g
           id="change1_1">
          <path
             d="m 1713.23,3743.1 c -0.81,1.04 -1.54,2.15 -2.21,3.3 -1.13,1.92 -2.12,3.93 -3.3,5.8 -1.02,1.63 -2.04,3.02 -2.91,4.57 -0.57,1.02 -1.08,2.11 -1.47,3.37 -0.08,0.21 0.03,0.45 0.24,0.52 0.22,0.08 0.45,-0.03 0.53,-0.25 0.46,-1.16 1.02,-2.14 1.65,-3.07 0.97,-1.45 2.09,-2.74 3.22,-4.27 1.53,-2.11 2.85,-4.39 4.32,-6.56 0.6,-0.89 1.23,-1.77 1.92,-2.6 1.9,-2.25 4.01,-4.38 5.91,-6.66 1.31,-1.58 2.53,-3.22 3.54,-5.01 0.75,-1.33 1.34,-2.7 1.86,-4.1 0.75,-2.04 1.35,-4.13 2.04,-6.22 1.06,-3.21 1.95,-6.41 2.75,-9.62 1.18,-4.8 2.13,-9.64 3.11,-14.6 l 3.47,-17.44 c 0.1,-0.55 0.73,-3.13 0.51,-4.53 -0.13,-0.87 -0.57,-1.41 -1.17,-1.57 -0.48,-0.12 -1,0 -1.51,0.31 -0.65,0.41 -1.31,1.2 -1.65,1.54 -1.13,1.16 -2.23,2.36 -3.3,3.57 -1.07,1.22 -2.11,2.45 -3.13,3.71 -4.65,5.71 -8.23,12.13 -10.72,18.96 -2.49,6.83 -3.9,14.06 -4.27,21.38 -0.06,1.89 -0.07,3.78 -0.03,5.67 0.05,2.81 0.18,5.62 0.28,8.43 l 0.16,4.13 c 0,0.04 0.15,0.73 0.16,1.24 z m -0.09,0.31 c -0.03,0.04 -0.06,0.08 -0.09,0.13 -0.03,0.04 -0.04,0.07 -0.06,0.11 -0.11,-0.03 0.05,-0.16 0.15,-0.24 z m 23.45,-67.41 -1.29,1.2 -6.28,7.19 c -4.47,5.59 -7.87,11.87 -10.23,18.53 -2.37,6.65 -3.69,13.69 -4,20.81 -0.1,1.85 -0.14,3.7 -0.15,5.55 -0.02,2.81 0.04,5.61 0.08,8.41 l 0.04,3.56 c 1.54,-1.8 3.16,-3.57 4.65,-5.42 1.21,-1.48 2.33,-3.03 3.26,-4.71 0.69,-1.23 1.23,-2.49 1.71,-3.78 0.74,-2.01 1.33,-4.08 2.01,-6.14 1.04,-3.16 1.92,-6.3 2.7,-9.45 1.19,-4.77 2.16,-9.56 3.14,-14.49 l 3.79,-17.38 c 0.1,-0.43 0.45,-3.01 0.57,-3.88 z"
             fill="#242424"
             transform="translate(-1450.24,-3522)"
             id="path9" />
        </g>
      </g>
    </g>
    <path
       style="fill:#808080;stroke:#242424;stroke-width:2;stroke-dasharray:none;stroke-opacity:1"
       d="M 201.44624,281.8186 V 402.88795"
       id="path11" />
  </g>
</svg>
