<?xml version="1.0" encoding="UTF-8"?><svg xmlns="http://www.w3.org/2000/svg" xmlns:xlink="http://www.w3.org/1999/xlink" height="92.0" preserveAspectRatio="xMidYMid meet" version="1.0" viewBox="-0.1 0.0 126.1 92.0" width="126.1" zoomAndPan="magnify"><g id="change1_1"><path d="M125.883,42.237c-0.174-0.326-0.514-0.53-0.883-0.53h-8.982c-0.356-17.858-21.696-32.477-48.697-33.9V4.293 C67.322,1.926,65.383,0,63,0c-2.383,0-4.321,1.926-4.321,4.293v3.514C31.678,9.23,10.338,23.849,9.982,41.707H1 c-0.369,0-0.709,0.204-0.883,0.53s-0.153,0.721,0.053,1.027l4.429,6.586c0.187,0.276,0.497,0.442,0.83,0.442H23.38 c-0.934,0.272-1.765,0.831-2.326,1.636c-0.737,1.059-0.967,2.375-0.63,3.611c0.34,1.244,1.21,2.267,2.389,2.806l11.031,5.047 c6.515,2.592,13.258,4.82,20.042,6.623c7.243,1.924,14.685,3.402,22.122,4.396c2.298,1.048,4.397,2.444,6.241,4.151 c1.475,1.366,2.754,2.922,3.831,4.613l-1.641,1.626c-0.189,0.188-0.296,0.443-0.296,0.71s0.106,0.522,0.296,0.71l5.536,5.488 c0.188,0.186,0.44,0.29,0.704,0.29c0.005,0,0.009,0,0.014,0c0.269-0.004,0.523-0.115,0.709-0.31l19.929-20.854 c0.377-0.394,0.368-1.017-0.019-1.4l-5.536-5.488c-0.391-0.387-1.018-0.387-1.408,0l-1.487,1.474L91.669,53.568 c-1.258-1.331-2.728-2.426-4.327-3.275h33.229c0.333,0,0.644-0.166,0.83-0.442l4.429-6.586 C126.036,42.958,126.057,42.563,125.883,42.237z M60.679,4.293C60.679,3.028,61.72,2,63,2c1.28,0,2.321,1.028,2.321,2.293v3.428 C64.551,7.699,63.779,7.683,63,7.683s-1.551,0.017-2.321,0.038V4.293z M63,9.683c27.904,0,50.636,14.325,51.018,32.024H11.982 C12.364,24.008,35.096,9.683,63,9.683z M42.701,55.083l-2.814-0.199l-13.696-4.537c-0.072-0.024-0.145-0.033-0.218-0.054h16.888 c-0.447,0.645-0.733,1.405-0.788,2.226C42.012,53.44,42.248,54.326,42.701,55.083z M105.072,66.066l4.135,4.099L90.659,89.573 l-4.096-4.062l1.498-1.484c0.004-0.004,0.005-0.01,0.009-0.014c0.004-0.005,0.011-0.006,0.015-0.011l15.497-16.461L105.072,66.066z M90.216,54.942l11.267,11.913L87.517,81.689c-1.114-1.679-2.425-3.221-3.908-4.594c-2.039-1.888-4.365-3.425-6.913-4.568 c-0.088-0.04-0.182-0.066-0.277-0.079c-7.402-0.982-14.811-2.451-22.019-4.366c-6.708-1.782-13.375-3.985-19.77-6.527 l-10.985-5.027c-0.638-0.292-1.108-0.844-1.291-1.514c-0.184-0.673-0.063-1.362,0.341-1.94c0.434-0.623,1.183-0.972,1.982-0.972 c0.292,0,0.592,0.047,0.885,0.144l13.815,4.576c0.079,0.026,0.161,0.042,0.244,0.048l27.706,1.964 c1.988,0.141,3.858,0.873,5.443,2.146c0.432,0.338,1.044,0.256,1.388-0.175c0.342-0.431,0.258-1.068-0.171-1.412 c-1.869-1.501-4.123-2.384-6.52-2.553l-21.045-1.492c-1.389-0.15-2.443-1.356-2.354-2.694c0.084-1.26,1.14-2.275,2.39-2.359h32.93 C83.477,50.293,87.423,51.987,90.216,54.942z M120.039,48.293H5.961l-3.083-4.586h120.244L120.039,48.293z" fill="inherit"/><path d="M21.826,33.08c-1.012,1.366-1.954,2.802-2.8,4.266c-0.276,0.478-0.112,1.09,0.366,1.366 c0.157,0.091,0.329,0.134,0.499,0.134c0.346,0,0.682-0.179,0.867-0.5c0.808-1.398,1.708-2.77,2.675-4.076 c0.329-0.443,0.235-1.07-0.209-1.398C22.782,32.543,22.155,32.636,21.826,33.08z" fill="inherit"/><path d="M57.394,14.739c-0.007,0-0.016,0-0.023,0c-5.793,0.134-14.545,1.456-23.337,7c-3.178,2.004-6.101,4.406-8.686,7.139 c-0.38,0.401-0.362,1.034,0.039,1.414c0.193,0.183,0.44,0.273,0.688,0.273c0.265,0,0.53-0.104,0.727-0.313 c2.471-2.611,5.263-4.907,8.299-6.822c8.405-5.3,16.775-6.564,22.317-6.691c0.552-0.013,0.989-0.471,0.977-1.023 C58.381,15.172,57.936,14.739,57.394,14.739z" fill="inherit"/><path d="M103.766,31.953c-6.225-8.287-13.928-12.614-19.294-14.784c-0.512-0.207-1.095,0.04-1.302,0.552s0.04,1.095,0.552,1.302 c5.131,2.076,12.496,6.212,18.444,14.132c0.844,1.124,1.637,2.297,2.357,3.486c0.188,0.31,0.519,0.481,0.856,0.481 c0.177,0,0.355-0.047,0.518-0.145c0.472-0.286,0.623-0.901,0.337-1.374C105.48,34.358,104.649,33.13,103.766,31.953z" fill="inherit"/></g></svg>