<?xml version="1.0" encoding="UTF-8"?><svg xmlns="http://www.w3.org/2000/svg" xmlns:xlink="http://www.w3.org/1999/xlink" height="239.5" preserveAspectRatio="xMidYMid meet" version="1.1" viewBox="75.8 88.6 273.7 239.5" width="273.7" zoomAndPan="magnify">
 <g fill="none" id="surface1" stroke="#231f1f" stroke-linecap="round" stroke-linejoin="round" stroke-miterlimit="10" stroke-width="56.76">
  <path d="m3205.6 3029.6c-219.5 299.3-903.1 332.2-1079.6-136.3-176.5 468.5-860.1 435.6-1079.6 136.3-256.28-349.6-187.42-800.8 97.4-1143.4 284.7-342.6 982.2-884.9 982.2-884.9s697.5 542.3 982.2 884.9c284.8 342.6 353.7 793.8 97.4 1143.4z" transform="matrix(.1 0 0 -.1 0 425.2)"/>
  <path d="m1866.7 1249.6s28.5 616 28.5 630.9c0 73.9-48.4 133.8-108.1 133.8-69.8 0-63.2-43.2-108-58.7h-9.6c-44.9 15.5-38.3 58.7-108.1 58.7-59.7 0-108-59.9-108-133.8 0-14.9 25-338.9 25-338.9" transform="matrix(.1 0 0 -.1 0 425.2)"/>
  <path d="m1661.1 2187.5c-31.3 0.2-72.2 4.6-179.2-53.4" transform="matrix(.1 0 0 -.1 0 425.2)"/>
  <path d="m1866.7 2134.1c-107.1 58-150.6 57-205.6 53.4" transform="matrix(.1 0 0 -.1 0 425.2)"/>
  <path d="m1481.9 2134.1c-154.5-85.6-179.5-281.2-174.6-424.3" transform="matrix(.1 0 0 -.1 0 425.2)"/>
  <path d="m1866.7 2134.1c146.4-72.9 245.4-313.9 259.3-388.1s-192.4-294-192.4-294" transform="matrix(.1 0 0 -.1 0 425.2)"/>
  <path d="m1866.7 2129.7h166.4c-20.5 46-38.3 108.4-23.2 153.6 20.5 60.9 57 115.5 29.8 189.6-39.6 107.8-122.8 88.9-147.4 231.7-13 75.4-79.8 105-142.9 90.6-44.1-10-111.1-10-155.1 0-63.2 14.4-129.9-15.2-142.9-90.6-24.6-142.8-107.8-123.9-147.5-231.7-27.1-74.1 9.4-128.7 29.9-189.6 15.1-45.2-2.7-107.6-23.2-153.6h171.3" transform="matrix(.1 0 0 -.1 0 425.2)"/>
  <path d="m1671.8 2645.8c-18.4-106-188-231.1-196.5-253.4 27.8-105.5 106.4-205 199-205 90.3 0 167.2 94.6 196.8 197.3-7.9 25.3-196.8 135.9-199.3 261.1z" transform="matrix(.1 0 0 -.1 0 425.2)"/>
  <path d="m2372.7 2118.4l-108.7-1007.1" transform="matrix(.1 0 0 -.1 0 425.2)"/>
  <path d="m2607.6 2188.9c-378.9 0-520.6-362.6-535.2-442.9-14.7-80.3 300.3-346 300.3-346" transform="matrix(.1 0 0 -.1 0 425.2)"/>
  <path d="m2607.6 1400v788.9" transform="matrix(.1 0 0 -.1 0 425.2)"/>
  <path d="m2827.5 2146.5l70.2-483" transform="matrix(.1 0 0 -.1 0 425.2)"/>
  <path d="m2607.6 2188.9s192.6-2.1 261.2-70.5c72.1-71.7 128.7-196.8 169-312.2" transform="matrix(.1 0 0 -.1 0 425.2)"/>
  <path d="m2288.8 2595h637.6" transform="matrix(.1 0 0 -.1 0 425.2)"/>
  <path d="m2827.5 2595v215.2c0 32.6-26.4 59-58.9 59h-322c-32.5 0-58.9-26.4-58.9-59v-215.2z" transform="matrix(.1 0 0 -.1 0 425.2)"/>
  <path d="m2429.8 2595c-20.2-35.8-32.1-77.9-32.1-123.2 0-128.5 94-284.4 209.9-284.4s209.9 155.9 209.9 284.4c0 45.3-11.9 87.4-32 123.2z" transform="matrix(.1 0 0 -.1 0 425.2)"/>
  <path d="m2148.6 1921.9c-11.6 110.1-24.4 234-33.5 408.2-29.9 576-443.3 558.1-443.3 558.1s-413.3 17.9-443.2-558.1c-11.2-214.6-25.9-376.5-40.1-495.6" transform="matrix(.1 0 0 -.1 0 425.2)"/>
 </g>
</svg>